<?xml version="1.0" encoding="iso-8859-1"?>
<svg version="1.1" id="Layer_1" xmlns="http://www.w3.org/2000/svg" xmlns:xlink="http://www.w3.org/1999/xlink" x="0px" y="0px"
	 viewBox="0 0 291.319 291.319" style="enable-background:new 0 0 291.319 291.319;" xml:space="preserve">
<g>
  <path style="fill:#3B5998;" d="M145.659,0c80.45,0,145.66,65.219,145.66,145.66c0,80.45-65.21,145.659-145.66,145.659
		S0,226.109,0,145.66C0,65.219,65.21,0,145.659,0z"/>
  <g transform="translate(65,80)">
    <path d="M38.015,1.966V43.83H0v76.913h17.095v32.43l28.892-32.43h55.122V90.837h1.038l33.045,37.09v-37.09    h19.947V1.966H38.015z M95.363,114.985H43.403l-20.568,23.08v-23.08H5.74V49.57h32.269v41.261h57.348v24.154H95.363z     M149.393,85.085h-19.953v27.746l-24.727-27.746H43.761V7.706h105.631V85.085z" fill="#FFFFFF"/>
    <rect x="59.543" y="27.695" width="47.317" height="5.746" fill="#FFFFFF"/>
    <rect x="59.543" y="45.882" width="71.012" height="5.746" fill="#FFFFFF"/>
  </g>
</g>
</svg>
